<?xml version="1.0" standalone="no"?>
<!DOCTYPE svg PUBLIC "-//W3C//DTD SVG 20010904//EN"
 "http://www.w3.org/TR/2001/REC-SVG-20010904/DTD/svg10.dtd">
<svg version="1.0" xmlns="http://www.w3.org/2000/svg"
 width="32.000000pt" height="32.000000pt" viewBox="0 0 32.000000 32.000000"
 preserveAspectRatio="xMidYMid meet">

<g transform="translate(0.000000,32.000000) scale(0.100000,-0.100000)"
fill="#000000" stroke="none">
<path d="M0 160 l0 -160 160 0 160 0 0 160 0 160 -160 0 -160 0 0 -160z m164
24 c-4 -49 -10 -64 -25 -64 -13 0 -11 84 3 98 21 21 27 13 22 -34z m-114 26
c0 -5 -4 -10 -10 -10 -5 0 -10 5 -10 10 0 6 5 10 10 10 6 0 10 -4 10 -10z m0
-55 c0 -19 -4 -35 -10 -35 -5 0 -10 16 -10 35 0 19 5 35 10 35 6 0 10 -16 10
-35z m70 0 c0 -19 -4 -35 -10 -35 -5 0 -10 11 -10 25 0 14 -4 25 -10 25 -5 0
-10 -11 -10 -25 0 -14 -4 -25 -10 -25 -5 0 -10 16 -10 35 0 32 2 35 30 35 28
0 30 -3 30 -35z m119 18 c10 -17 10 -17 11 0 0 11 8 17 25 17 27 0 34 -15 10
-24 -8 -3 -15 -15 -15 -26 0 -11 -4 -20 -10 -20 -5 0 -10 8 -10 17 0 15 -1 15
-13 -1 -15 -21 -45 -18 -60 6 -8 12 -7 21 2 32 18 21 48 20 60 -1z"/>
<path d="M197 164 c-8 -8 1 -24 14 -24 5 0 9 7 9 15 0 15 -12 20 -23 9z"/>
</g>
</svg>
